<?xml version="1.0" encoding="utf-8"?>
<!-- Generator: Adobe Illustrator 16.0.0, SVG Export Plug-In . SVG Version: 6.00 Build 0)  -->
<!DOCTYPE svg PUBLIC "-//W3C//DTD SVG 1.1//EN" "http://www.w3.org/Graphics/SVG/1.1/DTD/svg11.dtd">
<svg version="1.1" id="Layer_1" xmlns="http://www.w3.org/2000/svg" xmlns:xlink="http://www.w3.org/1999/xlink" x="0px" y="0px"
	 width="16px" height="16px" viewBox="0 0 16 16" enable-background="new 0 0 16 16" xml:space="preserve">
<g>
	<rect fill="none" stroke="#808285" stroke-width="0.0625" stroke-miterlimit="10" width="16" height="16"/>
	<line fill="none" stroke="#808285" stroke-width="0.0625" stroke-miterlimit="10" x1="0" y1="15" x2="16" y2="15"/>
	<line fill="none" stroke="#808285" stroke-width="0.0625" stroke-miterlimit="10" x1="0" y1="14" x2="16" y2="14"/>
	<line fill="none" stroke="#808285" stroke-width="0.0625" stroke-miterlimit="10" x1="0" y1="13" x2="16" y2="13"/>
	<line fill="none" stroke="#808285" stroke-width="0.0625" stroke-miterlimit="10" x1="0" y1="12" x2="16" y2="12"/>
	<line fill="none" stroke="#808285" stroke-width="0.0625" stroke-miterlimit="10" x1="0" y1="11" x2="16" y2="11"/>
	<line fill="none" stroke="#808285" stroke-width="0.0625" stroke-miterlimit="10" x1="0" y1="10" x2="16" y2="10"/>
	<line fill="none" stroke="#808285" stroke-width="0.0625" stroke-miterlimit="10" x1="0" y1="9" x2="16" y2="9"/>
	<line fill="none" stroke="#808285" stroke-width="0.0625" stroke-miterlimit="10" x1="0" y1="8" x2="16" y2="8"/>
	<line fill="none" stroke="#808285" stroke-width="0.0625" stroke-miterlimit="10" x1="0" y1="7" x2="16" y2="7"/>
	<line fill="none" stroke="#808285" stroke-width="0.0625" stroke-miterlimit="10" x1="0" y1="6" x2="16" y2="6"/>
	<line fill="none" stroke="#808285" stroke-width="0.0625" stroke-miterlimit="10" x1="0" y1="5" x2="16" y2="5"/>
	<line fill="none" stroke="#808285" stroke-width="0.0625" stroke-miterlimit="10" x1="0" y1="4" x2="16" y2="4"/>
	<line fill="none" stroke="#808285" stroke-width="0.0625" stroke-miterlimit="10" x1="0" y1="3" x2="16" y2="3"/>
	<line fill="none" stroke="#808285" stroke-width="0.0625" stroke-miterlimit="10" x1="0" y1="2" x2="16" y2="2"/>
	<line fill="none" stroke="#808285" stroke-width="0.0625" stroke-miterlimit="10" x1="0" y1="1" x2="16" y2="1"/>
	<line fill="none" stroke="#808285" stroke-width="0.0625" stroke-miterlimit="10" x1="15" y1="0" x2="15" y2="16"/>
	<line fill="none" stroke="#808285" stroke-width="0.0625" stroke-miterlimit="10" x1="14" y1="0" x2="14" y2="16"/>
	<line fill="none" stroke="#808285" stroke-width="0.0625" stroke-miterlimit="10" x1="13" y1="0" x2="13" y2="16"/>
	<line fill="none" stroke="#808285" stroke-width="0.0625" stroke-miterlimit="10" x1="12" y1="0" x2="12" y2="16"/>
	<line fill="none" stroke="#808285" stroke-width="0.0625" stroke-miterlimit="10" x1="11" y1="0" x2="11" y2="16"/>
	<line fill="none" stroke="#808285" stroke-width="0.0625" stroke-miterlimit="10" x1="10" y1="0" x2="10" y2="16"/>
	<line fill="none" stroke="#808285" stroke-width="0.0625" stroke-miterlimit="10" x1="9" y1="0" x2="9" y2="16"/>
	<line fill="none" stroke="#808285" stroke-width="0.0625" stroke-miterlimit="10" x1="8" y1="0" x2="8" y2="16"/>
	<line fill="none" stroke="#808285" stroke-width="0.0625" stroke-miterlimit="10" x1="7" y1="0" x2="7" y2="16"/>
	<line fill="none" stroke="#808285" stroke-width="0.0625" stroke-miterlimit="10" x1="6" y1="0" x2="6" y2="16"/>
	<line fill="none" stroke="#808285" stroke-width="0.0625" stroke-miterlimit="10" x1="5" y1="0" x2="5" y2="16"/>
	<line fill="none" stroke="#808285" stroke-width="0.0625" stroke-miterlimit="10" x1="4" y1="0" x2="4" y2="16"/>
	<line fill="none" stroke="#808285" stroke-width="0.0625" stroke-miterlimit="10" x1="3" y1="0" x2="3" y2="16"/>
	<line fill="none" stroke="#808285" stroke-width="0.0625" stroke-miterlimit="10" x1="2" y1="0" x2="2" y2="16"/>
	<line fill="none" stroke="#808285" stroke-width="0.0625" stroke-miterlimit="10" x1="1" y1="0" x2="1" y2="16"/>
</g>
<g>
	<g>
		<path fill-rule="evenodd" clip-rule="evenodd" d="M15,6V4c0-0.552-0.447-1-1-1H1C0.448,3,0,3.448,0,4v9c0,0.553,0.448,1,1,1h13
			c0.553,0,1-0.447,1-1v-2c0.553,0,1-0.447,1-1V7C16,6.448,15.553,6,15,6z M13,7v3v1c0,0.553-0.447,1-1,1H3c-0.552,0-1-0.447-1-1V6
			c0-0.552,0.448-1,1-1h9c0.553,0,1,0.448,1,1V7z M3.5,6C3.224,6,3,6.224,3,6.5v4C3,10.776,3.224,11,3.5,11
			C3.776,11,4,10.776,4,10.5v-4C4,6.224,3.776,6,3.5,6z M5.5,6C5.224,6,5,6.224,5,6.5v4C5,10.776,5.224,11,5.5,11
			C5.776,11,6,10.776,6,10.5v-4C6,6.224,5.776,6,5.5,6z M7.5,6C7.224,6,7,6.224,7,6.5v4C7,10.776,7.224,11,7.5,11
			C7.776,11,8,10.776,8,10.5v-4C8,6.224,7.776,6,7.5,6z"/>
	</g>
</g>
</svg>
