<?xml version="1.0" encoding="utf-8"?>
<!-- Generator: Adobe Illustrator 16.0.0, SVG Export Plug-In . SVG Version: 6.00 Build 0)  -->
<!DOCTYPE svg PUBLIC "-//W3C//DTD SVG 1.1//EN" "http://www.w3.org/Graphics/SVG/1.1/DTD/svg11.dtd">
<svg version="1.1" id="Layer_1" xmlns="http://www.w3.org/2000/svg" xmlns:xlink="http://www.w3.org/1999/xlink" x="0px" y="0px"
	 width="16px" height="16px" viewBox="0 0 16 16" enable-background="new 0 0 16 16" xml:space="preserve">
<g>
	<rect fill="none" stroke="#808285" stroke-width="0.0625" stroke-miterlimit="10" width="16" height="16"/>
	<line fill="none" stroke="#808285" stroke-width="0.0625" stroke-miterlimit="10" x1="0" y1="15" x2="16" y2="15"/>
	<line fill="none" stroke="#808285" stroke-width="0.0625" stroke-miterlimit="10" x1="0" y1="14" x2="16" y2="14"/>
	<line fill="none" stroke="#808285" stroke-width="0.0625" stroke-miterlimit="10" x1="0" y1="13" x2="16" y2="13"/>
	<line fill="none" stroke="#808285" stroke-width="0.0625" stroke-miterlimit="10" x1="0" y1="12" x2="16" y2="12"/>
	<line fill="none" stroke="#808285" stroke-width="0.0625" stroke-miterlimit="10" x1="0" y1="11" x2="16" y2="11"/>
	<line fill="none" stroke="#808285" stroke-width="0.0625" stroke-miterlimit="10" x1="0" y1="10" x2="16" y2="10"/>
	<line fill="none" stroke="#808285" stroke-width="0.0625" stroke-miterlimit="10" x1="0" y1="9" x2="16" y2="9"/>
	<line fill="none" stroke="#808285" stroke-width="0.0625" stroke-miterlimit="10" x1="0" y1="8" x2="16" y2="8"/>
	<line fill="none" stroke="#808285" stroke-width="0.0625" stroke-miterlimit="10" x1="0" y1="7" x2="16" y2="7"/>
	<line fill="none" stroke="#808285" stroke-width="0.0625" stroke-miterlimit="10" x1="0" y1="6" x2="16" y2="6"/>
	<line fill="none" stroke="#808285" stroke-width="0.0625" stroke-miterlimit="10" x1="0" y1="5" x2="16" y2="5"/>
	<line fill="none" stroke="#808285" stroke-width="0.0625" stroke-miterlimit="10" x1="0" y1="4" x2="16" y2="4"/>
	<line fill="none" stroke="#808285" stroke-width="0.0625" stroke-miterlimit="10" x1="0" y1="3" x2="16" y2="3"/>
	<line fill="none" stroke="#808285" stroke-width="0.0625" stroke-miterlimit="10" x1="0" y1="2" x2="16" y2="2"/>
	<line fill="none" stroke="#808285" stroke-width="0.0625" stroke-miterlimit="10" x1="0" y1="1" x2="16" y2="1"/>
	<line fill="none" stroke="#808285" stroke-width="0.0625" stroke-miterlimit="10" x1="15" y1="0" x2="15" y2="16"/>
	<line fill="none" stroke="#808285" stroke-width="0.0625" stroke-miterlimit="10" x1="14" y1="0" x2="14" y2="16"/>
	<line fill="none" stroke="#808285" stroke-width="0.0625" stroke-miterlimit="10" x1="13" y1="0" x2="13" y2="16"/>
	<line fill="none" stroke="#808285" stroke-width="0.0625" stroke-miterlimit="10" x1="12" y1="0" x2="12" y2="16"/>
	<line fill="none" stroke="#808285" stroke-width="0.0625" stroke-miterlimit="10" x1="11" y1="0" x2="11" y2="16"/>
	<line fill="none" stroke="#808285" stroke-width="0.0625" stroke-miterlimit="10" x1="10" y1="0" x2="10" y2="16"/>
	<line fill="none" stroke="#808285" stroke-width="0.0625" stroke-miterlimit="10" x1="9" y1="0" x2="9" y2="16"/>
	<line fill="none" stroke="#808285" stroke-width="0.0625" stroke-miterlimit="10" x1="8" y1="0" x2="8" y2="16"/>
	<line fill="none" stroke="#808285" stroke-width="0.0625" stroke-miterlimit="10" x1="7" y1="0" x2="7" y2="16"/>
	<line fill="none" stroke="#808285" stroke-width="0.0625" stroke-miterlimit="10" x1="6" y1="0" x2="6" y2="16"/>
	<line fill="none" stroke="#808285" stroke-width="0.0625" stroke-miterlimit="10" x1="5" y1="0" x2="5" y2="16"/>
	<line fill="none" stroke="#808285" stroke-width="0.0625" stroke-miterlimit="10" x1="4" y1="0" x2="4" y2="16"/>
	<line fill="none" stroke="#808285" stroke-width="0.0625" stroke-miterlimit="10" x1="3" y1="0" x2="3" y2="16"/>
	<line fill="none" stroke="#808285" stroke-width="0.0625" stroke-miterlimit="10" x1="2" y1="0" x2="2" y2="16"/>
	<line fill="none" stroke="#808285" stroke-width="0.0625" stroke-miterlimit="10" x1="1" y1="0" x2="1" y2="16"/>
</g>
<g>
	<g>
		<path fill-rule="evenodd" clip-rule="evenodd" d="M15.146,8.058L7.918,0.861c-0.531-0.53-1.212-0.808-1.906-0.857v-0.009H5.925
			c-0.086-0.004-0.17-0.004-0.256,0H0.012v5.362C-0.127,6.269,0.146,7.23,0.847,7.933l7.228,7.196c1.172,1.172,3.071,1.172,4.242,0
			l2.829-2.828C16.316,11.129,16.316,9.229,15.146,8.058z M13.669,10.823l-2.829,2.829c-0.391,0.391-1.023,0.391-1.414,0
			L2.198,6.456C2.067,6.324,1.997,6.163,1.953,5.995h0.059v-4h4V1.975C6.168,2.02,6.318,2.09,6.441,2.213l7.228,7.196
			C14.06,9.8,14.06,10.434,13.669,10.823z M4.012,2.995c-0.553,0-1,0.448-1,1c0,0.553,0.447,1,1,1s1-0.447,1-1
			C5.012,3.443,4.564,2.995,4.012,2.995z"/>
	</g>
</g>
</svg>
