<?xml version="1.0" encoding="utf-8"?>
<!-- Generator: Adobe Illustrator 16.0.0, SVG Export Plug-In . SVG Version: 6.00 Build 0)  -->
<!DOCTYPE svg PUBLIC "-//W3C//DTD SVG 1.1//EN" "http://www.w3.org/Graphics/SVG/1.1/DTD/svg11.dtd">
<svg version="1.1" id="Layer_1" xmlns="http://www.w3.org/2000/svg" xmlns:xlink="http://www.w3.org/1999/xlink" x="0px" y="0px"
	 width="16px" height="16px" viewBox="0 0 16 16" enable-background="new 0 0 16 16" xml:space="preserve">
<g>
	<rect fill="none" stroke="#808285" stroke-width="0.0625" stroke-miterlimit="10" width="16" height="16"/>
	<line fill="none" stroke="#808285" stroke-width="0.0625" stroke-miterlimit="10" x1="0" y1="15" x2="16" y2="15"/>
	<line fill="none" stroke="#808285" stroke-width="0.0625" stroke-miterlimit="10" x1="0" y1="14" x2="16" y2="14"/>
	<line fill="none" stroke="#808285" stroke-width="0.0625" stroke-miterlimit="10" x1="0" y1="13" x2="16" y2="13"/>
	<line fill="none" stroke="#808285" stroke-width="0.0625" stroke-miterlimit="10" x1="0" y1="12" x2="16" y2="12"/>
	<line fill="none" stroke="#808285" stroke-width="0.0625" stroke-miterlimit="10" x1="0" y1="11" x2="16" y2="11"/>
	<line fill="none" stroke="#808285" stroke-width="0.0625" stroke-miterlimit="10" x1="0" y1="10" x2="16" y2="10"/>
	<line fill="none" stroke="#808285" stroke-width="0.0625" stroke-miterlimit="10" x1="0" y1="9" x2="16" y2="9"/>
	<line fill="none" stroke="#808285" stroke-width="0.0625" stroke-miterlimit="10" x1="0" y1="8" x2="16" y2="8"/>
	<line fill="none" stroke="#808285" stroke-width="0.0625" stroke-miterlimit="10" x1="0" y1="7" x2="16" y2="7"/>
	<line fill="none" stroke="#808285" stroke-width="0.0625" stroke-miterlimit="10" x1="0" y1="6" x2="16" y2="6"/>
	<line fill="none" stroke="#808285" stroke-width="0.0625" stroke-miterlimit="10" x1="0" y1="5" x2="16" y2="5"/>
	<line fill="none" stroke="#808285" stroke-width="0.0625" stroke-miterlimit="10" x1="0" y1="4" x2="16" y2="4"/>
	<line fill="none" stroke="#808285" stroke-width="0.0625" stroke-miterlimit="10" x1="0" y1="3" x2="16" y2="3"/>
	<line fill="none" stroke="#808285" stroke-width="0.0625" stroke-miterlimit="10" x1="0" y1="2" x2="16" y2="2"/>
	<line fill="none" stroke="#808285" stroke-width="0.0625" stroke-miterlimit="10" x1="0" y1="1" x2="16" y2="1"/>
	<line fill="none" stroke="#808285" stroke-width="0.0625" stroke-miterlimit="10" x1="15" y1="0" x2="15" y2="16"/>
	<line fill="none" stroke="#808285" stroke-width="0.0625" stroke-miterlimit="10" x1="14" y1="0" x2="14" y2="16"/>
	<line fill="none" stroke="#808285" stroke-width="0.0625" stroke-miterlimit="10" x1="13" y1="0" x2="13" y2="16"/>
	<line fill="none" stroke="#808285" stroke-width="0.0625" stroke-miterlimit="10" x1="12" y1="0" x2="12" y2="16"/>
	<line fill="none" stroke="#808285" stroke-width="0.0625" stroke-miterlimit="10" x1="11" y1="0" x2="11" y2="16"/>
	<line fill="none" stroke="#808285" stroke-width="0.0625" stroke-miterlimit="10" x1="10" y1="0" x2="10" y2="16"/>
	<line fill="none" stroke="#808285" stroke-width="0.0625" stroke-miterlimit="10" x1="9" y1="0" x2="9" y2="16"/>
	<line fill="none" stroke="#808285" stroke-width="0.0625" stroke-miterlimit="10" x1="8" y1="0" x2="8" y2="16"/>
	<line fill="none" stroke="#808285" stroke-width="0.0625" stroke-miterlimit="10" x1="7" y1="0" x2="7" y2="16"/>
	<line fill="none" stroke="#808285" stroke-width="0.0625" stroke-miterlimit="10" x1="6" y1="0" x2="6" y2="16"/>
	<line fill="none" stroke="#808285" stroke-width="0.0625" stroke-miterlimit="10" x1="5" y1="0" x2="5" y2="16"/>
	<line fill="none" stroke="#808285" stroke-width="0.0625" stroke-miterlimit="10" x1="4" y1="0" x2="4" y2="16"/>
	<line fill="none" stroke="#808285" stroke-width="0.0625" stroke-miterlimit="10" x1="3" y1="0" x2="3" y2="16"/>
	<line fill="none" stroke="#808285" stroke-width="0.0625" stroke-miterlimit="10" x1="2" y1="0" x2="2" y2="16"/>
	<line fill="none" stroke="#808285" stroke-width="0.0625" stroke-miterlimit="10" x1="1" y1="0" x2="1" y2="16"/>
</g>
<path d="M8,1c0,0,0.043,0,0.126,0C8.168,1,8.22,1,8.281,1c0.03,0.001,0.063,0,0.099,0.001c0.036,0.002,0.074,0.004,0.114,0.006
	c0.322,0.014,0.797,0.055,1.385,0.205c0.072,0.019,0.147,0.039,0.225,0.059c0.076,0.024,0.154,0.048,0.234,0.073
	c0.08,0.023,0.16,0.054,0.242,0.084c0.082,0.031,0.168,0.06,0.251,0.097c0.34,0.137,0.694,0.316,1.055,0.542
	c0.359,0.225,0.723,0.497,1.073,0.822s0.689,0.702,0.991,1.134c0.302,0.432,0.569,0.917,0.784,1.446
	c0.029,0.065,0.051,0.134,0.076,0.201c0.024,0.068,0.05,0.136,0.073,0.205c0.021,0.069,0.043,0.139,0.064,0.209
	c0.011,0.035,0.021,0.07,0.032,0.105c0.01,0.036,0.019,0.071,0.027,0.107c0.019,0.072,0.037,0.144,0.055,0.216
	c0.019,0.072,0.031,0.146,0.047,0.22c0.007,0.037,0.015,0.074,0.021,0.111l0.012,0.055l0.008,0.056
	c0.012,0.075,0.022,0.15,0.034,0.226c0.013,0.075,0.019,0.152,0.026,0.228c0.008,0.077,0.016,0.153,0.022,0.23
	c0.003,0.077,0.007,0.155,0.011,0.232c0.002,0.039,0.004,0.078,0.006,0.117c0-0.001,0,0.018,0,0.021v0.014v0.028v0.057
	c-0.001,0.076-0.001,0.152-0.001,0.228v0.029l-0.002,0.03l-0.003,0.061c-0.002,0.04-0.004,0.081-0.006,0.121
	c-0.006,0.163-0.026,0.321-0.043,0.481c-0.043,0.319-0.098,0.642-0.186,0.96c-0.038,0.16-0.093,0.317-0.142,0.477
	c-0.027,0.079-0.058,0.157-0.087,0.235l-0.043,0.118l-0.05,0.116c-0.258,0.622-0.612,1.219-1.048,1.763
	c-0.056,0.067-0.111,0.135-0.167,0.202c-0.057,0.066-0.117,0.13-0.176,0.195c-0.03,0.032-0.06,0.064-0.09,0.097l-0.094,0.093
	l-0.094,0.094c-0.031,0.031-0.062,0.062-0.096,0.092c-0.065,0.06-0.131,0.118-0.196,0.178c-0.066,0.06-0.137,0.114-0.205,0.171
	c-0.034,0.028-0.068,0.057-0.104,0.084l-0.107,0.08l-0.107,0.08c-0.035,0.026-0.071,0.054-0.109,0.078
	c-0.074,0.05-0.148,0.1-0.223,0.149c-0.075,0.05-0.153,0.094-0.229,0.141c-0.039,0.023-0.077,0.048-0.116,0.069l-0.119,0.064
	l-0.119,0.064c-0.04,0.021-0.079,0.043-0.121,0.062c-0.081,0.039-0.163,0.078-0.244,0.117c-0.083,0.038-0.167,0.071-0.251,0.107
	c-0.042,0.017-0.083,0.035-0.126,0.052l-0.128,0.046L10.29,15.09c-0.042,0.016-0.085,0.031-0.129,0.044l-0.262,0.08
	c-0.088,0.026-0.177,0.046-0.266,0.069l-0.133,0.033l-0.135,0.027l-0.135,0.027c-0.045,0.009-0.09,0.019-0.135,0.024l-0.272,0.041
	c-0.022,0.003-0.046,0.007-0.068,0.01l-0.068,0.007L8.55,15.466l-0.137,0.014c-0.046,0.005-0.092,0.005-0.138,0.008L8,15.5
	l-0.271-0.001H7.665c-0.021,0-0.042,0-0.067-0.002L7.455,15.49l-0.143-0.008l-0.071-0.004c-0.023-0.002-0.046-0.005-0.069-0.007
	l-0.275-0.029c-0.046-0.004-0.091-0.013-0.137-0.02l-0.137-0.021L6.486,15.38l-0.136-0.028c-0.09-0.02-0.181-0.036-0.271-0.059
	l-0.268-0.069c-0.045-0.011-0.089-0.025-0.133-0.039l-0.132-0.042l-0.132-0.041c-0.044-0.015-0.087-0.032-0.13-0.048
	c-0.086-0.032-0.174-0.062-0.259-0.098c-0.084-0.036-0.169-0.072-0.254-0.108c-0.042-0.018-0.084-0.037-0.125-0.058l-0.125-0.061
	l-0.124-0.061c-0.041-0.021-0.081-0.043-0.122-0.065c-0.08-0.045-0.162-0.087-0.241-0.134c-0.079-0.048-0.157-0.096-0.235-0.144
	c-0.04-0.023-0.078-0.05-0.115-0.075l-0.114-0.077l-0.114-0.077c-0.037-0.027-0.073-0.055-0.11-0.082
	c-0.073-0.056-0.147-0.109-0.218-0.167c-0.07-0.059-0.141-0.116-0.211-0.175c-0.035-0.028-0.069-0.06-0.103-0.09L2.716,13.49
	l-0.101-0.092c-0.033-0.031-0.064-0.064-0.097-0.096c-0.063-0.065-0.129-0.128-0.19-0.194c-0.061-0.067-0.122-0.135-0.182-0.202
	c-0.476-0.545-0.872-1.15-1.17-1.792l-0.057-0.12l-0.051-0.122c-0.034-0.081-0.069-0.162-0.101-0.244
	c-0.059-0.165-0.123-0.328-0.171-0.496C0.489,9.8,0.416,9.461,0.355,9.124C0.331,8.955,0.302,8.787,0.289,8.618
	C0.282,8.533,0.271,8.449,0.267,8.365C0.263,8.281,0.259,8.197,0.255,8.114L0.252,8.051L0.251,8.02L0.25,8.004
	c0-0.001,0-0.045,0-0.033c0-0.038,0-0.076,0-0.113c0-0.075,0-0.15,0-0.225c0-0.009,0-0.02,0.001-0.031l0.002-0.033l0.003-0.064
	c0.002-0.043,0.005-0.086,0.007-0.13c0.005-0.086,0.009-0.174,0.019-0.253C0.292,7.04,0.3,6.958,0.309,6.877l0.007-0.061
	l0.009-0.061c0.006-0.04,0.013-0.08,0.019-0.12c0.014-0.08,0.024-0.16,0.04-0.239C0.399,6.319,0.416,6.24,0.432,6.162
	C0.44,6.123,0.448,6.084,0.458,6.045c0.01-0.039,0.02-0.077,0.03-0.115c0.02-0.077,0.04-0.153,0.06-0.229
	c0.022-0.076,0.047-0.15,0.07-0.225c0.024-0.074,0.045-0.149,0.074-0.222c0.208-0.585,0.477-1.126,0.788-1.613
	s0.665-0.917,1.037-1.293c0.372-0.376,0.762-0.695,1.152-0.963S4.446,0.9,4.82,0.73c0.092-0.046,0.186-0.083,0.277-0.121
	c0.091-0.038,0.18-0.076,0.269-0.107c0.089-0.032,0.176-0.063,0.26-0.094c0.086-0.027,0.17-0.052,0.252-0.078
	c0.656-0.197,1.194-0.267,1.559-0.298c0.046-0.004,0.089-0.008,0.13-0.012c0.04-0.004,0.078-0.004,0.112-0.006
	c0.07-0.003,0.129-0.006,0.177-0.008C7.951,0.002,8,0,8,0V1z M8,2c0,0-0.037,0-0.108,0c-0.036,0-0.08,0-0.133,0
	C7.732,2,7.703,1.999,7.673,2c-0.03,0.001-0.063,0.003-0.098,0.005c-0.276,0.01-0.684,0.044-1.188,0.17
	C6.325,2.192,6.26,2.209,6.194,2.226c-0.065,0.02-0.132,0.041-0.201,0.062C5.924,2.308,5.856,2.334,5.785,2.36
	C5.715,2.386,5.642,2.41,5.57,2.442C5.278,2.558,4.973,2.711,4.663,2.904C4.354,3.096,4.04,3.329,3.737,3.607
	C3.435,3.886,3.142,4.209,2.881,4.581C2.62,4.951,2.388,5.367,2.202,5.822C2.176,5.878,2.158,5.937,2.136,5.995
	C2.115,6.053,2.092,6.111,2.072,6.17c-0.019,0.06-0.038,0.12-0.056,0.18c-0.009,0.03-0.019,0.06-0.028,0.09
	c-0.009,0.03-0.016,0.062-0.024,0.092C1.948,6.595,1.932,6.657,1.916,6.719C1.9,6.781,1.89,6.844,1.876,6.908
	c-0.007,0.032-0.013,0.063-0.02,0.095l-0.01,0.048L1.839,7.099c-0.01,0.064-0.02,0.129-0.03,0.194
	C1.797,7.36,1.793,7.42,1.786,7.482l-0.01,0.093L1.771,7.622L1.769,7.646C1.768,7.653,1.767,7.661,1.767,7.67
	C1.763,7.745,1.759,7.82,1.756,7.896C1.754,7.933,1.752,7.971,1.75,8.009c0,0.021,0-0.014,0-0.005v0.013v0.025v0.051
	c0,0.068,0,0.136,0,0.204c0.001,0.068,0.006,0.136,0.009,0.205c0.003,0.138,0.021,0.274,0.035,0.413
	c0.037,0.275,0.083,0.554,0.158,0.828c0.032,0.139,0.08,0.273,0.121,0.411c0.023,0.068,0.049,0.136,0.074,0.204l0.037,0.102
	l0.042,0.101c0.221,0.537,0.525,1.054,0.9,1.525c0.048,0.059,0.096,0.117,0.144,0.175c0.049,0.059,0.101,0.113,0.152,0.17
	c0.025,0.027,0.051,0.057,0.077,0.084l0.081,0.081l0.081,0.081c0.027,0.027,0.054,0.055,0.083,0.079
	c0.057,0.052,0.113,0.104,0.17,0.155c0.057,0.051,0.118,0.098,0.177,0.147c0.03,0.024,0.059,0.05,0.089,0.074l0.092,0.069
	l0.093,0.069c0.031,0.023,0.062,0.047,0.094,0.067c0.064,0.044,0.128,0.087,0.193,0.131c0.064,0.043,0.132,0.081,0.198,0.122
	c0.034,0.02,0.066,0.041,0.1,0.061l0.103,0.056l0.103,0.056c0.034,0.02,0.069,0.038,0.104,0.054l0.211,0.103
	c0.071,0.033,0.144,0.062,0.216,0.093c0.036,0.015,0.072,0.031,0.108,0.046l0.111,0.04l0.111,0.041
	c0.037,0.014,0.074,0.027,0.112,0.038l0.226,0.07c0.076,0.022,0.153,0.04,0.229,0.061l0.115,0.029l0.116,0.023l0.117,0.024
	c0.038,0.007,0.077,0.017,0.116,0.021l0.236,0.036c0.02,0.003,0.039,0.007,0.059,0.009L7.4,14.457l0.114,0.012l0.114,0.012
	c0.019,0.002,0.04,0.003,0.062,0.004l0.064,0.004L8,14.5h0.24c0.039-0.001,0.08,0.001,0.119-0.002l0.12-0.006l0.12-0.006l0.06-0.003
	c0.02-0.002,0.04-0.004,0.06-0.006l0.239-0.024c0.04-0.003,0.079-0.011,0.118-0.017l0.119-0.019L9.313,14.4l0.118-0.024
	c0.078-0.017,0.157-0.03,0.234-0.05l0.232-0.06c0.039-0.01,0.077-0.021,0.115-0.033l0.114-0.036l0.115-0.035
	c0.038-0.013,0.075-0.027,0.112-0.041c0.075-0.028,0.151-0.054,0.225-0.084c0.074-0.031,0.147-0.062,0.222-0.094
	c0.037-0.015,0.072-0.032,0.108-0.05l0.108-0.052l0.107-0.052c0.036-0.019,0.07-0.038,0.105-0.057
	c0.07-0.039,0.142-0.075,0.21-0.116s0.136-0.082,0.204-0.124c0.034-0.02,0.067-0.042,0.101-0.064l0.099-0.067l0.099-0.066
	c0.032-0.023,0.064-0.048,0.096-0.071c0.063-0.048,0.129-0.094,0.19-0.144c0.062-0.051,0.122-0.102,0.184-0.151
	c0.031-0.025,0.061-0.052,0.089-0.079l0.088-0.079l0.088-0.08c0.029-0.027,0.057-0.056,0.084-0.084
	c0.056-0.056,0.113-0.11,0.167-0.168c0.053-0.059,0.106-0.116,0.159-0.175c0.414-0.473,0.761-0.999,1.022-1.556l0.05-0.104
	l0.045-0.106c0.029-0.07,0.061-0.141,0.089-0.211c0.051-0.145,0.107-0.285,0.149-0.432c0.094-0.288,0.158-0.583,0.212-0.876
	c0.021-0.146,0.047-0.295,0.059-0.438c0.003-0.036,0.007-0.072,0.011-0.108L14.73,8.38l0.002-0.027l0.002-0.029
	c0.004-0.076,0.007-0.152,0.011-0.228c0.002-0.036,0.003-0.071,0.005-0.107c0-0.036,0-0.073,0-0.109c0-0.073,0-0.146-0.001-0.218
	c-0.002-0.072-0.007-0.144-0.011-0.216s-0.006-0.144-0.015-0.214c-0.008-0.071-0.015-0.142-0.022-0.212l-0.005-0.053l-0.008-0.052
	c-0.006-0.035-0.011-0.07-0.017-0.105c-0.012-0.069-0.02-0.139-0.033-0.208c-0.015-0.068-0.028-0.137-0.043-0.205
	c-0.007-0.034-0.014-0.068-0.021-0.102c-0.009-0.033-0.017-0.067-0.025-0.1c-0.018-0.067-0.035-0.134-0.052-0.2
	c-0.02-0.066-0.041-0.131-0.061-0.196c-0.021-0.064-0.038-0.13-0.063-0.193c-0.18-0.51-0.413-0.982-0.683-1.408
	c-0.27-0.426-0.578-0.803-0.901-1.132c-0.324-0.329-0.665-0.609-1.005-0.844c-0.34-0.235-0.68-0.427-1.006-0.576
	c-0.08-0.041-0.162-0.072-0.241-0.106c-0.08-0.033-0.157-0.067-0.235-0.094c-0.077-0.028-0.152-0.056-0.227-0.083
	C10,1.34,9.927,1.317,9.855,1.295C9.283,1.122,8.812,1.059,8.493,1.03C8.453,1.026,8.415,1.023,8.38,1.019
	c-0.035-0.003-0.068-0.003-0.1-0.005C8.22,1.011,8.168,1.008,8.126,1.006C8.043,1.002,8,1,8,1V2z"/>
</svg>
