<?xml version="1.0" encoding="utf-8"?>
<!-- Generator: Adobe Illustrator 16.0.0, SVG Export Plug-In . SVG Version: 6.00 Build 0)  -->
<!DOCTYPE svg PUBLIC "-//W3C//DTD SVG 1.1//EN" "http://www.w3.org/Graphics/SVG/1.1/DTD/svg11.dtd">
<svg version="1.1" id="Layer_1" xmlns="http://www.w3.org/2000/svg" xmlns:xlink="http://www.w3.org/1999/xlink" x="0px" y="0px"
	 width="16px" height="16px" viewBox="0 0 16 16" enable-background="new 0 0 16 16" xml:space="preserve">
<g>
	<rect fill="none" stroke="#808285" stroke-width="0.0625" stroke-miterlimit="10" width="16" height="16"/>
	<line fill="none" stroke="#808285" stroke-width="0.0625" stroke-miterlimit="10" x1="0" y1="15" x2="16" y2="15"/>
	<line fill="none" stroke="#808285" stroke-width="0.0625" stroke-miterlimit="10" x1="0" y1="14" x2="16" y2="14"/>
	<line fill="none" stroke="#808285" stroke-width="0.0625" stroke-miterlimit="10" x1="0" y1="13" x2="16" y2="13"/>
	<line fill="none" stroke="#808285" stroke-width="0.0625" stroke-miterlimit="10" x1="0" y1="12" x2="16" y2="12"/>
	<line fill="none" stroke="#808285" stroke-width="0.0625" stroke-miterlimit="10" x1="0" y1="11" x2="16" y2="11"/>
	<line fill="none" stroke="#808285" stroke-width="0.0625" stroke-miterlimit="10" x1="0" y1="10" x2="16" y2="10"/>
	<line fill="none" stroke="#808285" stroke-width="0.0625" stroke-miterlimit="10" x1="0" y1="9" x2="16" y2="9"/>
	<line fill="none" stroke="#808285" stroke-width="0.0625" stroke-miterlimit="10" x1="0" y1="8" x2="16" y2="8"/>
	<line fill="none" stroke="#808285" stroke-width="0.0625" stroke-miterlimit="10" x1="0" y1="7" x2="16" y2="7"/>
	<line fill="none" stroke="#808285" stroke-width="0.0625" stroke-miterlimit="10" x1="0" y1="6" x2="16" y2="6"/>
	<line fill="none" stroke="#808285" stroke-width="0.0625" stroke-miterlimit="10" x1="0" y1="5" x2="16" y2="5"/>
	<line fill="none" stroke="#808285" stroke-width="0.0625" stroke-miterlimit="10" x1="0" y1="4" x2="16" y2="4"/>
	<line fill="none" stroke="#808285" stroke-width="0.0625" stroke-miterlimit="10" x1="0" y1="3" x2="16" y2="3"/>
	<line fill="none" stroke="#808285" stroke-width="0.0625" stroke-miterlimit="10" x1="0" y1="2" x2="16" y2="2"/>
	<line fill="none" stroke="#808285" stroke-width="0.0625" stroke-miterlimit="10" x1="0" y1="1" x2="16" y2="1"/>
	<line fill="none" stroke="#808285" stroke-width="0.0625" stroke-miterlimit="10" x1="15" y1="0" x2="15" y2="16"/>
	<line fill="none" stroke="#808285" stroke-width="0.0625" stroke-miterlimit="10" x1="14" y1="0" x2="14" y2="16"/>
	<line fill="none" stroke="#808285" stroke-width="0.0625" stroke-miterlimit="10" x1="13" y1="0" x2="13" y2="16"/>
	<line fill="none" stroke="#808285" stroke-width="0.0625" stroke-miterlimit="10" x1="12" y1="0" x2="12" y2="16"/>
	<line fill="none" stroke="#808285" stroke-width="0.0625" stroke-miterlimit="10" x1="11" y1="0" x2="11" y2="16"/>
	<line fill="none" stroke="#808285" stroke-width="0.0625" stroke-miterlimit="10" x1="10" y1="0" x2="10" y2="16"/>
	<line fill="none" stroke="#808285" stroke-width="0.0625" stroke-miterlimit="10" x1="9" y1="0" x2="9" y2="16"/>
	<line fill="none" stroke="#808285" stroke-width="0.0625" stroke-miterlimit="10" x1="8" y1="0" x2="8" y2="16"/>
	<line fill="none" stroke="#808285" stroke-width="0.0625" stroke-miterlimit="10" x1="7" y1="0" x2="7" y2="16"/>
	<line fill="none" stroke="#808285" stroke-width="0.0625" stroke-miterlimit="10" x1="6" y1="0" x2="6" y2="16"/>
	<line fill="none" stroke="#808285" stroke-width="0.0625" stroke-miterlimit="10" x1="5" y1="0" x2="5" y2="16"/>
	<line fill="none" stroke="#808285" stroke-width="0.0625" stroke-miterlimit="10" x1="4" y1="0" x2="4" y2="16"/>
	<line fill="none" stroke="#808285" stroke-width="0.0625" stroke-miterlimit="10" x1="3" y1="0" x2="3" y2="16"/>
	<line fill="none" stroke="#808285" stroke-width="0.0625" stroke-miterlimit="10" x1="2" y1="0" x2="2" y2="16"/>
	<line fill="none" stroke="#808285" stroke-width="0.0625" stroke-miterlimit="10" x1="1" y1="0" x2="1" y2="16"/>
</g>
<path d="M8,1.5c0,0,0.04,0,0.117-0.001c0.039-0.001,0.087-0.001,0.144-0.002c0.028,0,0.06-0.002,0.093,0
	C8.387,1.498,8.422,1.5,8.459,1.501c0.3,0.009,0.742,0.041,1.292,0.173C9.819,1.69,9.89,1.708,9.962,1.726
	c0.071,0.021,0.145,0.043,0.219,0.065c0.076,0.021,0.15,0.049,0.228,0.076s0.157,0.053,0.235,0.087
	c0.319,0.124,0.653,0.287,0.993,0.493s0.685,0.457,1.018,0.758c0.332,0.301,0.655,0.65,0.945,1.054
	c0.289,0.402,0.548,0.856,0.757,1.354c0.028,0.062,0.05,0.126,0.074,0.189c0.023,0.063,0.049,0.127,0.071,0.192
	c0.021,0.064,0.043,0.131,0.064,0.196c0.01,0.033,0.021,0.066,0.031,0.1c0.01,0.033,0.019,0.067,0.027,0.101
	c0.019,0.067,0.036,0.136,0.055,0.204c0.018,0.068,0.031,0.138,0.046,0.207c0.008,0.035,0.016,0.069,0.022,0.104l0.012,0.053
	l0.009,0.053c0.012,0.07,0.022,0.142,0.034,0.213c0.014,0.071,0.02,0.144,0.028,0.216c0.008,0.072,0.017,0.146,0.023,0.218
	c0.005,0.073,0.009,0.146,0.014,0.221c0.002,0.037,0.004,0.074,0.006,0.111c0.001,0.038,0.001,0.076,0.002,0.115
	c0.001,0.07,0.002,0.141,0.002,0.212l0.001,0.026l-0.001,0.028l-0.003,0.059c-0.001,0.038-0.003,0.077-0.004,0.115
	c-0.004,0.158-0.021,0.307-0.035,0.46C14.8,9.31,14.75,9.617,14.671,9.921c-0.035,0.153-0.085,0.304-0.13,0.456
	c-0.024,0.075-0.053,0.149-0.079,0.226l-0.04,0.112l-0.046,0.111c-0.239,0.597-0.57,1.171-0.98,1.696
	c-0.052,0.065-0.104,0.13-0.157,0.195c-0.054,0.064-0.111,0.126-0.166,0.188c-0.028,0.031-0.056,0.063-0.085,0.095l-0.088,0.09
	l-0.089,0.091c-0.029,0.03-0.06,0.061-0.091,0.089c-0.062,0.058-0.124,0.115-0.187,0.173c-0.063,0.058-0.13,0.11-0.194,0.166
	c-0.033,0.027-0.065,0.055-0.099,0.082l-0.102,0.078l-0.103,0.078c-0.034,0.025-0.068,0.052-0.104,0.076
	c-0.071,0.049-0.142,0.098-0.213,0.146c-0.071,0.048-0.146,0.092-0.22,0.138c-0.036,0.022-0.073,0.046-0.11,0.067l-0.113,0.063
	l-0.114,0.063c-0.038,0.021-0.076,0.042-0.115,0.061c-0.078,0.039-0.156,0.077-0.234,0.115c-0.079,0.038-0.16,0.071-0.24,0.106
	c-0.04,0.017-0.08,0.035-0.12,0.051l-0.123,0.047l-0.123,0.046c-0.041,0.016-0.082,0.031-0.124,0.044l-0.252,0.08
	c-0.084,0.026-0.17,0.047-0.255,0.07l-0.128,0.033l-0.13,0.028c-0.086,0.018-0.173,0.038-0.26,0.053
	C8.709,15.2,8.355,15.234,8,15.25l-0.259,0.003h-0.06l-0.03,0.001c-0.01,0-0.022-0.001-0.034-0.001l-0.14-0.006L7.337,15.24
	l-0.07-0.003c-0.023-0.001-0.045-0.004-0.067-0.006l-0.267-0.025c-0.089-0.009-0.178-0.023-0.267-0.036l-0.133-0.02l-0.131-0.025
	c-0.088-0.018-0.177-0.033-0.264-0.054l-0.261-0.064c-0.044-0.011-0.087-0.023-0.13-0.036L5.62,14.932l-0.129-0.039
	c-0.043-0.014-0.085-0.03-0.127-0.045c-0.084-0.03-0.169-0.059-0.253-0.092c-0.083-0.034-0.165-0.068-0.248-0.103
	c-0.042-0.017-0.082-0.035-0.123-0.055l-0.121-0.058l-0.121-0.058c-0.04-0.02-0.079-0.041-0.119-0.062
	c-0.078-0.043-0.158-0.083-0.236-0.128c-0.076-0.046-0.153-0.092-0.229-0.138c-0.039-0.022-0.076-0.047-0.113-0.071l-0.111-0.074
	l-0.111-0.074c-0.036-0.025-0.072-0.053-0.108-0.079c-0.071-0.053-0.145-0.104-0.214-0.159c-0.069-0.057-0.139-0.112-0.207-0.168
	c-0.035-0.027-0.068-0.058-0.102-0.087l-0.099-0.089l-0.1-0.089c-0.032-0.03-0.063-0.062-0.095-0.093
	C2.59,13.11,2.525,13.05,2.465,12.985s-0.12-0.13-0.18-0.194C1.814,12.264,1.42,11.676,1.12,11.05l-0.057-0.116l-0.052-0.119
	c-0.034-0.08-0.069-0.158-0.102-0.238c-0.06-0.162-0.124-0.321-0.173-0.485C0.629,9.766,0.553,9.435,0.49,9.104
	C0.465,8.938,0.435,8.772,0.42,8.606C0.412,8.524,0.401,8.441,0.396,8.359c-0.005-0.083-0.01-0.165-0.015-0.247L0.378,8.05
	L0.376,8.02L0.375,8.004c0,0.001,0.001-0.062,0-0.042c0-0.035-0.001-0.07-0.001-0.105c-0.001-0.069-0.002-0.14-0.002-0.209
	c-0.001-0.008,0-0.019,0-0.03l0.001-0.032L0.376,7.52C0.378,7.476,0.38,7.432,0.382,7.389c0.004-0.087,0.007-0.177,0.016-0.254
	c0.008-0.08,0.016-0.161,0.023-0.24l0.006-0.061l0.009-0.059c0.006-0.04,0.012-0.08,0.017-0.119C0.465,6.577,0.475,6.498,0.489,6.42
	c0.016-0.077,0.03-0.155,0.046-0.232C0.543,6.149,0.551,6.11,0.559,6.072c0.01-0.038,0.02-0.076,0.028-0.114
	c0.02-0.076,0.038-0.152,0.058-0.228c0.021-0.075,0.044-0.148,0.066-0.223c0.023-0.073,0.043-0.148,0.07-0.22
	c0.199-0.58,0.46-1.118,0.763-1.604s0.649-0.916,1.014-1.292c0.365-0.377,0.749-0.698,1.135-0.968
	c0.385-0.271,0.77-0.491,1.141-0.664c0.092-0.047,0.185-0.084,0.275-0.124c0.09-0.038,0.178-0.077,0.267-0.108
	C5.464,0.495,5.55,0.463,5.634,0.432c0.085-0.028,0.169-0.054,0.251-0.08c0.652-0.202,1.189-0.278,1.554-0.313
	c0.046-0.005,0.089-0.009,0.129-0.013c0.04-0.005,0.078-0.006,0.113-0.008C7.75,0.014,7.809,0.01,7.856,0.008C7.951,0.003,8,0,8,0
	V1.5z M8,3c0,0-0.031-0.001-0.091-0.002c-0.029,0-0.067-0.001-0.111-0.002c-0.021,0-0.046-0.002-0.071-0.001
	S7.674,2.996,7.645,2.997C7.413,3.001,7.072,3.022,6.648,3.119C6.596,3.132,6.541,3.145,6.485,3.157
	C6.431,3.174,6.374,3.189,6.316,3.206C6.258,3.221,6.2,3.242,6.14,3.263C6.08,3.284,6.019,3.302,5.958,3.328
	C5.711,3.421,5.451,3.545,5.187,3.701C4.922,3.858,4.652,4.05,4.391,4.281c-0.261,0.231-0.516,0.5-0.743,0.812
	c-0.229,0.312-0.433,0.662-0.6,1.047c-0.023,0.048-0.039,0.098-0.06,0.146C2.97,6.336,2.949,6.385,2.931,6.436
	c-0.017,0.051-0.033,0.102-0.05,0.152L2.854,6.665C2.847,6.691,2.84,6.718,2.833,6.744c-0.015,0.052-0.03,0.104-0.045,0.158
	C2.773,6.955,2.764,7.009,2.751,7.063L2.732,7.145l-0.01,0.041L2.716,7.227c-0.009,0.056-0.019,0.11-0.028,0.166
	C2.676,7.451,2.672,7.499,2.665,7.55l-0.01,0.076L2.649,7.664l-0.003,0.02c0,0.006-0.001,0.012-0.002,0.021
	C2.641,7.774,2.636,7.844,2.632,7.914C2.63,7.949,2.627,7.983,2.625,8.019c0,0.03,0-0.025,0-0.016v0.011L2.624,8.035v0.044
	C2.623,8.138,2.621,8.196,2.62,8.256c0,0.059,0.004,0.117,0.005,0.177c0,0.118,0.015,0.236,0.023,0.356
	C2.676,9.027,2.71,9.269,2.771,9.506c0.024,0.121,0.064,0.238,0.097,0.358c0.02,0.06,0.041,0.118,0.061,0.177l0.031,0.09
	l0.035,0.087c0.183,0.47,0.438,0.923,0.758,1.341c0.041,0.052,0.082,0.104,0.123,0.155c0.042,0.051,0.087,0.1,0.13,0.149
	c0.022,0.025,0.044,0.051,0.066,0.075l0.068,0.071l0.07,0.072c0.022,0.024,0.046,0.049,0.07,0.071
	c0.049,0.046,0.098,0.092,0.146,0.138s0.102,0.088,0.152,0.133l0.076,0.065l0.081,0.062l0.08,0.062
	c0.026,0.021,0.053,0.042,0.081,0.062c0.056,0.039,0.111,0.078,0.167,0.117c0.056,0.038,0.114,0.073,0.172,0.11
	c0.029,0.018,0.058,0.037,0.087,0.055l0.089,0.05l0.09,0.051c0.029,0.018,0.06,0.034,0.091,0.049l0.184,0.093
	c0.062,0.03,0.126,0.057,0.189,0.085c0.031,0.014,0.062,0.029,0.095,0.042l0.097,0.037l0.097,0.038
	c0.032,0.013,0.064,0.025,0.098,0.035l0.198,0.065c0.066,0.021,0.134,0.037,0.201,0.057l0.101,0.027l0.103,0.022
	c0.068,0.015,0.137,0.032,0.206,0.045l0.207,0.035c0.018,0.003,0.035,0.006,0.052,0.008l0.049,0.006l0.098,0.013l0.099,0.012
	c0.009,0.001,0.016,0.003,0.025,0.003l0.03,0.002l0.06,0.004l0.119,0.008l0.06,0.003l0.03,0.002l0.015,0.001
	C8.001,13.75,8.033,13.75,8,13.75c0.283,0.008,0.567,0.002,0.85-0.027c0.07-0.007,0.141-0.019,0.211-0.027l0.105-0.015l0.105-0.02
	c0.069-0.014,0.14-0.024,0.209-0.04l0.207-0.051c0.035-0.007,0.069-0.018,0.104-0.027l0.103-0.03l0.103-0.03
	c0.033-0.01,0.067-0.022,0.101-0.034c0.067-0.024,0.135-0.046,0.201-0.071l0.198-0.08c0.033-0.013,0.066-0.027,0.098-0.043
	l0.098-0.045l0.097-0.044c0.032-0.017,0.063-0.033,0.095-0.05c0.063-0.033,0.127-0.064,0.189-0.1
	c0.062-0.036,0.123-0.072,0.185-0.108c0.031-0.018,0.061-0.037,0.09-0.057l0.09-0.058l0.09-0.059l0.086-0.062
	c0.058-0.042,0.116-0.082,0.173-0.126c0.056-0.044,0.11-0.089,0.166-0.133c0.028-0.021,0.055-0.046,0.081-0.069l0.08-0.07l0.08-0.07
	c0.026-0.023,0.051-0.049,0.077-0.073c0.05-0.05,0.103-0.098,0.151-0.148c0.049-0.052,0.097-0.104,0.146-0.155
	c0.379-0.418,0.698-0.887,0.942-1.385l0.046-0.093l0.042-0.095c0.027-0.063,0.057-0.127,0.083-0.19
	c0.048-0.129,0.103-0.256,0.142-0.387c0.089-0.26,0.151-0.524,0.204-0.789c0.021-0.133,0.047-0.268,0.059-0.395l0.012-0.097
	l0.006-0.049l0.003-0.023l0.002-0.026c0.004-0.071,0.009-0.142,0.013-0.212l0.006-0.095l0.001-0.1
	c0.001-0.066,0.002-0.132,0.003-0.197c-0.001-0.065-0.005-0.131-0.007-0.196s-0.003-0.131-0.011-0.195
	c-0.006-0.064-0.011-0.129-0.017-0.193l-0.004-0.049l-0.007-0.047c-0.005-0.032-0.009-0.064-0.014-0.096
	c-0.01-0.063-0.016-0.128-0.027-0.19s-0.024-0.125-0.036-0.187c-0.006-0.031-0.012-0.062-0.018-0.094
	c-0.008-0.03-0.016-0.062-0.022-0.092c-0.015-0.062-0.03-0.122-0.045-0.183c-0.016-0.061-0.035-0.12-0.052-0.18
	c-0.019-0.06-0.033-0.12-0.056-0.178c-0.156-0.467-0.363-0.902-0.604-1.296c-0.241-0.395-0.52-0.744-0.812-1.051
	s-0.603-0.569-0.913-0.79c-0.31-0.221-0.62-0.402-0.92-0.544c-0.073-0.039-0.148-0.069-0.221-0.102
	c-0.073-0.032-0.145-0.064-0.216-0.09c-0.071-0.027-0.142-0.054-0.209-0.08C9.85,1.841,9.782,1.819,9.717,1.798
	c-0.527-0.169-0.964-0.233-1.26-0.263C8.42,1.53,8.386,1.526,8.353,1.522S8.289,1.519,8.261,1.517
	C8.203,1.513,8.155,1.51,8.117,1.507C8.04,1.503,8,1.5,8,1.5V3z"/>
</svg>
