<?xml version="1.0" encoding="utf-8"?>
<!-- Generator: Adobe Illustrator 16.0.0, SVG Export Plug-In . SVG Version: 6.00 Build 0)  -->
<!DOCTYPE svg PUBLIC "-//W3C//DTD SVG 1.1//EN" "http://www.w3.org/Graphics/SVG/1.1/DTD/svg11.dtd">
<svg version="1.1" id="Layer_1" xmlns="http://www.w3.org/2000/svg" xmlns:xlink="http://www.w3.org/1999/xlink" x="0px" y="0px"
	 width="16px" height="16px" viewBox="0 0 16 16" enable-background="new 0 0 16 16" xml:space="preserve">
<g>
	<rect fill="none" stroke="#808285" stroke-width="0.0625" stroke-miterlimit="10" width="16" height="16"/>
	<line fill="none" stroke="#808285" stroke-width="0.0625" stroke-miterlimit="10" x1="0" y1="15" x2="16" y2="15"/>
	<line fill="none" stroke="#808285" stroke-width="0.0625" stroke-miterlimit="10" x1="0" y1="14" x2="16" y2="14"/>
	<line fill="none" stroke="#808285" stroke-width="0.0625" stroke-miterlimit="10" x1="0" y1="13" x2="16" y2="13"/>
	<line fill="none" stroke="#808285" stroke-width="0.0625" stroke-miterlimit="10" x1="0" y1="12" x2="16" y2="12"/>
	<line fill="none" stroke="#808285" stroke-width="0.0625" stroke-miterlimit="10" x1="0" y1="11" x2="16" y2="11"/>
	<line fill="none" stroke="#808285" stroke-width="0.0625" stroke-miterlimit="10" x1="0" y1="10" x2="16" y2="10"/>
	<line fill="none" stroke="#808285" stroke-width="0.0625" stroke-miterlimit="10" x1="0" y1="9" x2="16" y2="9"/>
	<line fill="none" stroke="#808285" stroke-width="0.0625" stroke-miterlimit="10" x1="0" y1="8" x2="16" y2="8"/>
	<line fill="none" stroke="#808285" stroke-width="0.0625" stroke-miterlimit="10" x1="0" y1="7" x2="16" y2="7"/>
	<line fill="none" stroke="#808285" stroke-width="0.0625" stroke-miterlimit="10" x1="0" y1="6" x2="16" y2="6"/>
	<line fill="none" stroke="#808285" stroke-width="0.0625" stroke-miterlimit="10" x1="0" y1="5" x2="16" y2="5"/>
	<line fill="none" stroke="#808285" stroke-width="0.0625" stroke-miterlimit="10" x1="0" y1="4" x2="16" y2="4"/>
	<line fill="none" stroke="#808285" stroke-width="0.0625" stroke-miterlimit="10" x1="0" y1="3" x2="16" y2="3"/>
	<line fill="none" stroke="#808285" stroke-width="0.0625" stroke-miterlimit="10" x1="0" y1="2" x2="16" y2="2"/>
	<line fill="none" stroke="#808285" stroke-width="0.0625" stroke-miterlimit="10" x1="0" y1="1" x2="16" y2="1"/>
	<line fill="none" stroke="#808285" stroke-width="0.0625" stroke-miterlimit="10" x1="15" y1="0" x2="15" y2="16"/>
	<line fill="none" stroke="#808285" stroke-width="0.0625" stroke-miterlimit="10" x1="14" y1="0" x2="14" y2="16"/>
	<line fill="none" stroke="#808285" stroke-width="0.0625" stroke-miterlimit="10" x1="13" y1="0" x2="13" y2="16"/>
	<line fill="none" stroke="#808285" stroke-width="0.0625" stroke-miterlimit="10" x1="12" y1="0" x2="12" y2="16"/>
	<line fill="none" stroke="#808285" stroke-width="0.0625" stroke-miterlimit="10" x1="11" y1="0" x2="11" y2="16"/>
	<line fill="none" stroke="#808285" stroke-width="0.0625" stroke-miterlimit="10" x1="10" y1="0" x2="10" y2="16"/>
	<line fill="none" stroke="#808285" stroke-width="0.0625" stroke-miterlimit="10" x1="9" y1="0" x2="9" y2="16"/>
	<line fill="none" stroke="#808285" stroke-width="0.0625" stroke-miterlimit="10" x1="8" y1="0" x2="8" y2="16"/>
	<line fill="none" stroke="#808285" stroke-width="0.0625" stroke-miterlimit="10" x1="7" y1="0" x2="7" y2="16"/>
	<line fill="none" stroke="#808285" stroke-width="0.0625" stroke-miterlimit="10" x1="6" y1="0" x2="6" y2="16"/>
	<line fill="none" stroke="#808285" stroke-width="0.0625" stroke-miterlimit="10" x1="5" y1="0" x2="5" y2="16"/>
	<line fill="none" stroke="#808285" stroke-width="0.0625" stroke-miterlimit="10" x1="4" y1="0" x2="4" y2="16"/>
	<line fill="none" stroke="#808285" stroke-width="0.0625" stroke-miterlimit="10" x1="3" y1="0" x2="3" y2="16"/>
	<line fill="none" stroke="#808285" stroke-width="0.0625" stroke-miterlimit="10" x1="2" y1="0" x2="2" y2="16"/>
	<line fill="none" stroke="#808285" stroke-width="0.0625" stroke-miterlimit="10" x1="1" y1="0" x2="1" y2="16"/>
</g>
<path fill-rule="evenodd" clip-rule="evenodd" d="M14.137,4.699C14.519,5.406,14.789,6.179,14.916,7h-3.058
	C11.496,5.6,10.4,4.504,9,4.142V1.084c0.825,0.127,1.602,0.4,2.312,0.784l1.282-1.282c0.781-0.781,2.047-0.781,2.828,0
	s0.781,2.047,0,2.828L14.137,4.699z M14.715,1.293c-0.391-0.391-1.023-0.391-1.414,0L12.18,2.415
	c0.536,0.402,1.011,0.877,1.413,1.414l1.122-1.122C15.105,2.316,15.105,1.684,14.715,1.293z M7,4.142C5.6,4.504,4.504,5.6,4.142,7
	H1.084c0.127-0.821,0.397-1.594,0.779-2.301L0.578,3.414c-0.781-0.781-0.781-2.047,0-2.828s2.047-0.781,2.828,0l1.282,1.282
	C5.398,1.484,6.175,1.211,7,1.084V4.142z M2.699,1.293c-0.391-0.391-1.023-0.391-1.414,0s-0.391,1.023,0,1.414l1.122,1.122
	C2.809,3.292,3.283,2.817,3.82,2.415L2.699,1.293z M1.863,11.301C1.481,10.594,1.211,9.821,1.084,9h3.058
	C4.504,10.4,5.6,11.496,7,11.858v3.059c-0.825-0.128-1.602-0.401-2.312-0.785l-1.282,1.282c-0.781,0.781-2.047,0.781-2.828,0
	s-0.781-2.047,0-2.828L1.863,11.301z M1.285,14.707c0.391,0.391,1.023,0.391,1.414,0l1.121-1.121
	c-0.537-0.403-1.012-0.878-1.413-1.415l-1.122,1.122C0.895,13.684,0.895,14.316,1.285,14.707z M9,11.858
	C10.4,11.496,11.496,10.4,11.858,9h3.058c-0.127,0.821-0.397,1.594-0.779,2.301l1.285,1.285c0.781,0.781,0.781,2.047,0,2.828
	s-2.047,0.781-2.828,0l-1.282-1.282c-0.71,0.384-1.486,0.657-2.312,0.785V11.858z M13.301,14.707c0.391,0.391,1.023,0.391,1.414,0
	s0.391-1.023,0-1.414l-1.122-1.122c-0.402,0.537-0.877,1.012-1.413,1.415L13.301,14.707z"/>
</svg>
