<?xml version="1.0" encoding="utf-8"?>
<!-- Generator: Adobe Illustrator 16.0.0, SVG Export Plug-In . SVG Version: 6.00 Build 0)  -->
<!DOCTYPE svg PUBLIC "-//W3C//DTD SVG 1.1//EN" "http://www.w3.org/Graphics/SVG/1.1/DTD/svg11.dtd">
<svg version="1.1" id="Layer_1" xmlns="http://www.w3.org/2000/svg" xmlns:xlink="http://www.w3.org/1999/xlink" x="0px" y="0px"
	 width="16px" height="16px" viewBox="0 0 16 16" enable-background="new 0 0 16 16" xml:space="preserve">
<g>
	<rect fill="none" stroke="#808285" stroke-width="0.0625" stroke-miterlimit="10" width="16" height="16"/>
	<line fill="none" stroke="#808285" stroke-width="0.0625" stroke-miterlimit="10" x1="0" y1="15" x2="16" y2="15"/>
	<line fill="none" stroke="#808285" stroke-width="0.0625" stroke-miterlimit="10" x1="0" y1="14" x2="16" y2="14"/>
	<line fill="none" stroke="#808285" stroke-width="0.0625" stroke-miterlimit="10" x1="0" y1="13" x2="16" y2="13"/>
	<line fill="none" stroke="#808285" stroke-width="0.0625" stroke-miterlimit="10" x1="0" y1="12" x2="16" y2="12"/>
	<line fill="none" stroke="#808285" stroke-width="0.0625" stroke-miterlimit="10" x1="0" y1="11" x2="16" y2="11"/>
	<line fill="none" stroke="#808285" stroke-width="0.0625" stroke-miterlimit="10" x1="0" y1="10" x2="16" y2="10"/>
	<line fill="none" stroke="#808285" stroke-width="0.0625" stroke-miterlimit="10" x1="0" y1="9" x2="16" y2="9"/>
	<line fill="none" stroke="#808285" stroke-width="0.0625" stroke-miterlimit="10" x1="0" y1="8" x2="16" y2="8"/>
	<line fill="none" stroke="#808285" stroke-width="0.0625" stroke-miterlimit="10" x1="0" y1="7" x2="16" y2="7"/>
	<line fill="none" stroke="#808285" stroke-width="0.0625" stroke-miterlimit="10" x1="0" y1="6" x2="16" y2="6"/>
	<line fill="none" stroke="#808285" stroke-width="0.0625" stroke-miterlimit="10" x1="0" y1="5" x2="16" y2="5"/>
	<line fill="none" stroke="#808285" stroke-width="0.0625" stroke-miterlimit="10" x1="0" y1="4" x2="16" y2="4"/>
	<line fill="none" stroke="#808285" stroke-width="0.0625" stroke-miterlimit="10" x1="0" y1="3" x2="16" y2="3"/>
	<line fill="none" stroke="#808285" stroke-width="0.0625" stroke-miterlimit="10" x1="0" y1="2" x2="16" y2="2"/>
	<line fill="none" stroke="#808285" stroke-width="0.0625" stroke-miterlimit="10" x1="0" y1="1" x2="16" y2="1"/>
	<line fill="none" stroke="#808285" stroke-width="0.0625" stroke-miterlimit="10" x1="15" y1="0" x2="15" y2="16"/>
	<line fill="none" stroke="#808285" stroke-width="0.0625" stroke-miterlimit="10" x1="14" y1="0" x2="14" y2="16"/>
	<line fill="none" stroke="#808285" stroke-width="0.0625" stroke-miterlimit="10" x1="13" y1="0" x2="13" y2="16"/>
	<line fill="none" stroke="#808285" stroke-width="0.0625" stroke-miterlimit="10" x1="12" y1="0" x2="12" y2="16"/>
	<line fill="none" stroke="#808285" stroke-width="0.0625" stroke-miterlimit="10" x1="11" y1="0" x2="11" y2="16"/>
	<line fill="none" stroke="#808285" stroke-width="0.0625" stroke-miterlimit="10" x1="10" y1="0" x2="10" y2="16"/>
	<line fill="none" stroke="#808285" stroke-width="0.0625" stroke-miterlimit="10" x1="9" y1="0" x2="9" y2="16"/>
	<line fill="none" stroke="#808285" stroke-width="0.0625" stroke-miterlimit="10" x1="8" y1="0" x2="8" y2="16"/>
	<line fill="none" stroke="#808285" stroke-width="0.0625" stroke-miterlimit="10" x1="7" y1="0" x2="7" y2="16"/>
	<line fill="none" stroke="#808285" stroke-width="0.0625" stroke-miterlimit="10" x1="6" y1="0" x2="6" y2="16"/>
	<line fill="none" stroke="#808285" stroke-width="0.0625" stroke-miterlimit="10" x1="5" y1="0" x2="5" y2="16"/>
	<line fill="none" stroke="#808285" stroke-width="0.0625" stroke-miterlimit="10" x1="4" y1="0" x2="4" y2="16"/>
	<line fill="none" stroke="#808285" stroke-width="0.0625" stroke-miterlimit="10" x1="3" y1="0" x2="3" y2="16"/>
	<line fill="none" stroke="#808285" stroke-width="0.0625" stroke-miterlimit="10" x1="2" y1="0" x2="2" y2="16"/>
	<line fill="none" stroke="#808285" stroke-width="0.0625" stroke-miterlimit="10" x1="1" y1="0" x2="1" y2="16"/>
</g>
<g>
	<g>
		<path fill-rule="evenodd" clip-rule="evenodd" d="M15,7h-1c-0.035,0-0.064,0.017-0.099,0.02c-0.152-0.923-0.509-1.772-1.031-2.502
			c0.025-0.021,0.056-0.029,0.08-0.053l0.707-0.707c0.391-0.391,0.391-1.023,0-1.414s-1.024-0.391-1.415,0L11.535,3.05
			c-0.023,0.023-0.032,0.055-0.053,0.08C10.753,2.607,9.903,2.251,8.98,2.099C8.983,2.064,9,2.035,9,2V1c0-0.552-0.447-1-1-1
			S7,0.448,7,1v1c0,0.035,0.017,0.064,0.02,0.099C6.097,2.251,5.247,2.607,4.518,3.13C4.497,3.105,4.488,3.074,4.465,3.05
			L3.758,2.343c-0.391-0.391-1.024-0.391-1.415,0c-0.39,0.391-0.39,1.023,0,1.414l0.708,0.707C3.074,4.488,3.104,4.497,3.13,4.518
			C2.607,5.248,2.251,6.097,2.099,7.02C2.064,7.017,2.035,7,2,7H1C0.447,7,0,7.448,0,8s0.447,1,1,1h1
			c0.035,0,0.064-0.016,0.099-0.02c0.152,0.923,0.509,1.772,1.031,2.502c-0.025,0.021-0.056,0.029-0.079,0.053l-0.708,0.707
			c-0.39,0.391-0.39,1.024,0,1.414c0.391,0.391,1.024,0.391,1.415,0l0.707-0.707c0.023-0.023,0.032-0.055,0.053-0.08
			c0.729,0.523,1.579,0.879,2.502,1.032C7.017,13.936,7,13.965,7,14v1c0,0.553,0.447,1,1,1s1-0.447,1-1v-1
			c0-0.035-0.017-0.064-0.02-0.099c0.923-0.153,1.772-0.509,2.502-1.032c0.021,0.025,0.029,0.057,0.053,0.08l0.707,0.707
			c0.391,0.391,1.024,0.391,1.415,0c0.391-0.39,0.391-1.023,0-1.414l-0.707-0.707c-0.024-0.023-0.055-0.031-0.08-0.053
			c0.522-0.73,0.879-1.579,1.031-2.502C13.936,8.984,13.965,9,14,9h1c0.553,0,1-0.448,1-1S15.553,7,15,7z M8,11
			c-1.657,0-3-1.344-3-3c0-1.657,1.343-3,3-3s3,1.343,3,3C11,9.656,9.657,11,8,11z"/>
	</g>
</g>
</svg>
