<?xml version="1.0" encoding="utf-8"?>
<!-- Generator: Adobe Illustrator 16.0.0, SVG Export Plug-In . SVG Version: 6.00 Build 0)  -->
<!DOCTYPE svg PUBLIC "-//W3C//DTD SVG 1.1//EN" "http://www.w3.org/Graphics/SVG/1.1/DTD/svg11.dtd">
<svg version="1.1" id="Layer_1" xmlns="http://www.w3.org/2000/svg" xmlns:xlink="http://www.w3.org/1999/xlink" x="0px" y="0px"
	 width="16px" height="16px" viewBox="0 0 16 16" enable-background="new 0 0 16 16" xml:space="preserve">
<g>
	<rect fill="none" stroke="#808285" stroke-width="0.0625" stroke-miterlimit="10" width="16" height="16"/>
	<line fill="none" stroke="#808285" stroke-width="0.0625" stroke-miterlimit="10" x1="0" y1="15" x2="16" y2="15"/>
	<line fill="none" stroke="#808285" stroke-width="0.0625" stroke-miterlimit="10" x1="0" y1="14" x2="16" y2="14"/>
	<line fill="none" stroke="#808285" stroke-width="0.0625" stroke-miterlimit="10" x1="0" y1="13" x2="16" y2="13"/>
	<line fill="none" stroke="#808285" stroke-width="0.0625" stroke-miterlimit="10" x1="0" y1="12" x2="16" y2="12"/>
	<line fill="none" stroke="#808285" stroke-width="0.0625" stroke-miterlimit="10" x1="0" y1="11" x2="16" y2="11"/>
	<line fill="none" stroke="#808285" stroke-width="0.0625" stroke-miterlimit="10" x1="0" y1="10" x2="16" y2="10"/>
	<line fill="none" stroke="#808285" stroke-width="0.0625" stroke-miterlimit="10" x1="0" y1="9" x2="16" y2="9"/>
	<line fill="none" stroke="#808285" stroke-width="0.0625" stroke-miterlimit="10" x1="0" y1="8" x2="16" y2="8"/>
	<line fill="none" stroke="#808285" stroke-width="0.0625" stroke-miterlimit="10" x1="0" y1="7" x2="16" y2="7"/>
	<line fill="none" stroke="#808285" stroke-width="0.0625" stroke-miterlimit="10" x1="0" y1="6" x2="16" y2="6"/>
	<line fill="none" stroke="#808285" stroke-width="0.0625" stroke-miterlimit="10" x1="0" y1="5" x2="16" y2="5"/>
	<line fill="none" stroke="#808285" stroke-width="0.0625" stroke-miterlimit="10" x1="0" y1="4" x2="16" y2="4"/>
	<line fill="none" stroke="#808285" stroke-width="0.0625" stroke-miterlimit="10" x1="0" y1="3" x2="16" y2="3"/>
	<line fill="none" stroke="#808285" stroke-width="0.0625" stroke-miterlimit="10" x1="0" y1="2" x2="16" y2="2"/>
	<line fill="none" stroke="#808285" stroke-width="0.0625" stroke-miterlimit="10" x1="0" y1="1" x2="16" y2="1"/>
	<line fill="none" stroke="#808285" stroke-width="0.0625" stroke-miterlimit="10" x1="15" y1="0" x2="15" y2="16"/>
	<line fill="none" stroke="#808285" stroke-width="0.0625" stroke-miterlimit="10" x1="14" y1="0" x2="14" y2="16"/>
	<line fill="none" stroke="#808285" stroke-width="0.0625" stroke-miterlimit="10" x1="13" y1="0" x2="13" y2="16"/>
	<line fill="none" stroke="#808285" stroke-width="0.0625" stroke-miterlimit="10" x1="12" y1="0" x2="12" y2="16"/>
	<line fill="none" stroke="#808285" stroke-width="0.0625" stroke-miterlimit="10" x1="11" y1="0" x2="11" y2="16"/>
	<line fill="none" stroke="#808285" stroke-width="0.0625" stroke-miterlimit="10" x1="10" y1="0" x2="10" y2="16"/>
	<line fill="none" stroke="#808285" stroke-width="0.0625" stroke-miterlimit="10" x1="9" y1="0" x2="9" y2="16"/>
	<line fill="none" stroke="#808285" stroke-width="0.0625" stroke-miterlimit="10" x1="8" y1="0" x2="8" y2="16"/>
	<line fill="none" stroke="#808285" stroke-width="0.0625" stroke-miterlimit="10" x1="7" y1="0" x2="7" y2="16"/>
	<line fill="none" stroke="#808285" stroke-width="0.0625" stroke-miterlimit="10" x1="6" y1="0" x2="6" y2="16"/>
	<line fill="none" stroke="#808285" stroke-width="0.0625" stroke-miterlimit="10" x1="5" y1="0" x2="5" y2="16"/>
	<line fill="none" stroke="#808285" stroke-width="0.0625" stroke-miterlimit="10" x1="4" y1="0" x2="4" y2="16"/>
	<line fill="none" stroke="#808285" stroke-width="0.0625" stroke-miterlimit="10" x1="3" y1="0" x2="3" y2="16"/>
	<line fill="none" stroke="#808285" stroke-width="0.0625" stroke-miterlimit="10" x1="2" y1="0" x2="2" y2="16"/>
	<line fill="none" stroke="#808285" stroke-width="0.0625" stroke-miterlimit="10" x1="1" y1="0" x2="1" y2="16"/>
</g>
<path fill-rule="evenodd" clip-rule="evenodd" d="M16,13c0,0.453-0.308,0.821-0.722,0.943c0.206,0.38,0.164,0.857-0.157,1.178
	c-0.32,0.32-0.798,0.363-1.178,0.157C13.821,15.692,13.453,16,13,16s-0.821-0.308-0.943-0.722c-0.38,0.206-0.857,0.163-1.178-0.157
	c-0.321-0.32-0.363-0.798-0.157-1.178C10.308,13.821,10,13.453,10,13s0.308-0.821,0.722-0.943c-0.206-0.379-0.164-0.857,0.157-1.178
	c0.32-0.32,0.798-0.363,1.178-0.157C12.179,10.308,12.547,10,13,10s0.821,0.308,0.943,0.722c0.38-0.206,0.857-0.163,1.178,0.157
	c0.321,0.32,0.363,0.799,0.157,1.178C15.692,12.179,16,12.547,16,13z M13,12c-0.553,0-1,0.447-1,1s0.447,1,1,1s1-0.447,1-1
	S13.553,12,13,12z M11,7h-0.101c-0.13,0.638-0.384,1.23-0.73,1.754l0.073,0.074c0.391,0.39,0.391,1.023,0,1.414
	c-0.39,0.391-1.023,0.391-1.414,0l-0.074-0.074C8.229,10.516,7.638,10.77,7,10.899V11c0,0.553-0.447,1-1,1s-1-0.447-1-1v-0.101
	c-0.638-0.13-1.229-0.384-1.754-0.731l-0.074,0.074c-0.391,0.391-1.024,0.391-1.414,0c-0.391-0.391-0.391-1.023,0-1.414l0.073-0.074
	C1.484,8.23,1.23,7.638,1.101,7H1C0.447,7,0,6.552,0,6s0.447-1,1-1h0.101c0.13-0.638,0.384-1.229,0.73-1.754L1.758,3.171
	c-0.391-0.39-0.391-1.023,0-1.414c0.39-0.391,1.023-0.391,1.414,0l0.074,0.074C3.771,1.484,4.362,1.23,5,1.101V1
	c0-0.552,0.447-1,1-1s1,0.448,1,1v0.101c0.638,0.129,1.229,0.383,1.754,0.73l0.074-0.074c0.391-0.391,1.024-0.391,1.414,0
	c0.391,0.391,0.391,1.024,0,1.414l-0.073,0.074C10.516,3.771,10.77,4.362,10.899,5H11c0.553,0,1,0.448,1,1S11.553,7,11,7z M6,3
	C4.343,3,3,4.343,3,6s1.343,3,3,3s3-1.343,3-3S7.657,3,6,3z"/>
</svg>
