<?xml version="1.0" encoding="utf-8"?>
<!-- Generator: Adobe Illustrator 16.0.0, SVG Export Plug-In . SVG Version: 6.00 Build 0)  -->
<!DOCTYPE svg PUBLIC "-//W3C//DTD SVG 1.1//EN" "http://www.w3.org/Graphics/SVG/1.1/DTD/svg11.dtd">
<svg version="1.1" id="Layer_1" xmlns="http://www.w3.org/2000/svg" xmlns:xlink="http://www.w3.org/1999/xlink" x="0px" y="0px"
	 width="16px" height="16px" viewBox="0 0 16 16" enable-background="new 0 0 16 16" xml:space="preserve">
<g>
	<rect fill="none" stroke="#808285" stroke-width="0.0625" stroke-miterlimit="10" width="16" height="16"/>
	<line fill="none" stroke="#808285" stroke-width="0.0625" stroke-miterlimit="10" x1="0" y1="15" x2="16" y2="15"/>
	<line fill="none" stroke="#808285" stroke-width="0.0625" stroke-miterlimit="10" x1="0" y1="14" x2="16" y2="14"/>
	<line fill="none" stroke="#808285" stroke-width="0.0625" stroke-miterlimit="10" x1="0" y1="13" x2="16" y2="13"/>
	<line fill="none" stroke="#808285" stroke-width="0.0625" stroke-miterlimit="10" x1="0" y1="12" x2="16" y2="12"/>
	<line fill="none" stroke="#808285" stroke-width="0.0625" stroke-miterlimit="10" x1="0" y1="11" x2="16" y2="11"/>
	<line fill="none" stroke="#808285" stroke-width="0.0625" stroke-miterlimit="10" x1="0" y1="10" x2="16" y2="10"/>
	<line fill="none" stroke="#808285" stroke-width="0.0625" stroke-miterlimit="10" x1="0" y1="9" x2="16" y2="9"/>
	<line fill="none" stroke="#808285" stroke-width="0.0625" stroke-miterlimit="10" x1="0" y1="8" x2="16" y2="8"/>
	<line fill="none" stroke="#808285" stroke-width="0.0625" stroke-miterlimit="10" x1="0" y1="7" x2="16" y2="7"/>
	<line fill="none" stroke="#808285" stroke-width="0.0625" stroke-miterlimit="10" x1="0" y1="6" x2="16" y2="6"/>
	<line fill="none" stroke="#808285" stroke-width="0.0625" stroke-miterlimit="10" x1="0" y1="5" x2="16" y2="5"/>
	<line fill="none" stroke="#808285" stroke-width="0.0625" stroke-miterlimit="10" x1="0" y1="4" x2="16" y2="4"/>
	<line fill="none" stroke="#808285" stroke-width="0.0625" stroke-miterlimit="10" x1="0" y1="3" x2="16" y2="3"/>
	<line fill="none" stroke="#808285" stroke-width="0.0625" stroke-miterlimit="10" x1="0" y1="2" x2="16" y2="2"/>
	<line fill="none" stroke="#808285" stroke-width="0.0625" stroke-miterlimit="10" x1="0" y1="1" x2="16" y2="1"/>
	<line fill="none" stroke="#808285" stroke-width="0.0625" stroke-miterlimit="10" x1="15" y1="0" x2="15" y2="16"/>
	<line fill="none" stroke="#808285" stroke-width="0.0625" stroke-miterlimit="10" x1="14" y1="0" x2="14" y2="16"/>
	<line fill="none" stroke="#808285" stroke-width="0.0625" stroke-miterlimit="10" x1="13" y1="0" x2="13" y2="16"/>
	<line fill="none" stroke="#808285" stroke-width="0.0625" stroke-miterlimit="10" x1="12" y1="0" x2="12" y2="16"/>
	<line fill="none" stroke="#808285" stroke-width="0.0625" stroke-miterlimit="10" x1="11" y1="0" x2="11" y2="16"/>
	<line fill="none" stroke="#808285" stroke-width="0.0625" stroke-miterlimit="10" x1="10" y1="0" x2="10" y2="16"/>
	<line fill="none" stroke="#808285" stroke-width="0.0625" stroke-miterlimit="10" x1="9" y1="0" x2="9" y2="16"/>
	<line fill="none" stroke="#808285" stroke-width="0.0625" stroke-miterlimit="10" x1="8" y1="0" x2="8" y2="16"/>
	<line fill="none" stroke="#808285" stroke-width="0.0625" stroke-miterlimit="10" x1="7" y1="0" x2="7" y2="16"/>
	<line fill="none" stroke="#808285" stroke-width="0.0625" stroke-miterlimit="10" x1="6" y1="0" x2="6" y2="16"/>
	<line fill="none" stroke="#808285" stroke-width="0.0625" stroke-miterlimit="10" x1="5" y1="0" x2="5" y2="16"/>
	<line fill="none" stroke="#808285" stroke-width="0.0625" stroke-miterlimit="10" x1="4" y1="0" x2="4" y2="16"/>
	<line fill="none" stroke="#808285" stroke-width="0.0625" stroke-miterlimit="10" x1="3" y1="0" x2="3" y2="16"/>
	<line fill="none" stroke="#808285" stroke-width="0.0625" stroke-miterlimit="10" x1="2" y1="0" x2="2" y2="16"/>
	<line fill="none" stroke="#808285" stroke-width="0.0625" stroke-miterlimit="10" x1="1" y1="0" x2="1" y2="16"/>
</g>
<path fill-rule="evenodd" clip-rule="evenodd" d="M15,16h-1v-1.5c0-0.275-0.224-0.5-0.5-0.5S13,14.225,13,14.5V16h-2v-0.5
	c0-0.275-0.224-0.5-0.5-0.5S10,15.225,10,15.5V16H6v-0.5C6,15.225,5.776,15,5.5,15S5,15.225,5,15.5V16H1c-0.553,0-1-0.447-1-1V1
	c0-0.552,0.447-1,1-1h14c0.553,0,1,0.448,1,1v14C16,15.553,15.553,16,15,16z M7,14c0,0.553,0.447,1,1,1s1-0.447,1-1v-1
	c0-0.553-0.447-1-1-1s-1,0.447-1,1V14z M8,11c1.657,0,3-1.344,3-3c0-1.657-1.343-3-3-3S5,6.343,5,8C5,9.656,6.343,11,8,11z M15,2
	c0-0.552-0.447-1-1-1H2C1.447,1,1,1.448,1,2v1c0,0.552,0.447,1,1,1h12c0.553,0,1-0.448,1-1V2z M2,2h7v1H2V2z M8,6
	c1.104,0,2,0.896,2,2s-0.896,2-2,2S6,9.104,6,8S6.896,6,8,6z M8,9c0.553,0,1-0.448,1-1S8.553,7,8,7S7,7.448,7,8S7.447,9,8,9z"/>
</svg>
